<svg xmlns="http://www.w3.org/2000/svg" xmlns:xlink="http://www.w3.org/1999/xlink" version="1.1" id="ykmuffzgcm" x="0px" y="0px" width="100%" height="100%" viewBox="0 0 5500 461.4" enable-background="new 0 0 5500 461.4" xml:space="preserve" isInit="true" preserveAspectRatio="none" opacity="1" style="display: block; overflow: hidden; position: absolute; left: 0px; top: 0px;">
<g isInit="true">
	<g isInit="true">
		<path fill="#e9f06a" d="M509.9,260.1c-158.8,0-318.6-9.2-509.9-21.7L0.9,225c321.5,21,553.9,32.8,842,6.9    c261-23.5,525.6-19.8,781.6-16.3c97,1.3,197.3,2.6,296.4,2.6c202.4-0.2,408.9-4.3,608.7-8.3c368.1-7.3,748.7-14.9,1122.4,1.5    c282.8,12.4,554.7,12.4,808-0.2c111.6-5.5,226,0.4,336.5,6.2c132.9,6.9,270.4,14.1,401.9,0.9c106.1-10.6,132.9-9.9,191.5-8.4    c26.6,0.7,59.8,1.5,110.1,1.5v13.4c-50.5,0-83.7-0.8-110.4-1.5c-58.1-1.5-84.6-2.2-189.8,8.4c-132.5,13.2-270.5,6.1-404-0.9    c-110.2-5.7-224.2-11.6-335.2-6.2c-253.8,12.6-526.1,12.6-809.3,0.2c-373.3-16.4-753.7-8.8-1121.5-1.5    c-199.8,4-406.4,8.1-608.9,8.3c-99.2,0.1-199.5-1.3-296.6-2.6c-255.6-3.5-519.9-7.2-780.2,16.3    C726.7,255.8,618.5,260.1,509.9,260.1z" origin_fill="#d7df23" isInit="true"></path>
	</g>
	<path fill="#ffdd72" d="M400.7,154.3c-29.1-18.1-65-20.8-96.1-6.8c-3.6,1.6-20.6,15.9-25.2,22.9c-16,24.6-2.6,54.5,13.6,74.6   c16.3,20.4,43.9,30.8,69.4,25c34.2-7.8,49.2-46.3,54.1-77C419,177.2,414.9,163.1,400.7,154.3z" origin_fill="#ffb9cd" isInit="true"></path>
	<path fill="#e9f06a" d="M765,243.9c-2.5-17-19.2-32.7-35.9-35.4c-3.6-0.6-25.3-4.7-33.2-2.9c-26.9,6-53.7,22.2-65.5,48.1   c-13.4,29.4-8.2,64,12.6,88.7c25.6,30.5,68.4,14.2,90.6-10.5C755.2,307.9,769.8,276.4,765,243.9z" origin_fill="#d7df23" isInit="true"></path>
	<path fill="#ffd5c4" d="M1631.6,125.4c-24.4-16.1-50.3-29.2-79.7-18.8c-10,3.5-17.7,10.3-24,18.5c-1.7,1.6-3.3,3.5-4.8,5.6   c-10,14.2-20.2,26.2-24.9,43.3c-6.1,21.9,5.3,43.2,16.5,61.1c8.6,13.8,29.1,17.6,43.3,11.9c18.6-7.5,38.3-14.9,54-27.6   c19-15.4,27.1-36.6,33.5-59.3C1648.8,148.4,1641.4,131.9,1631.6,125.4z" origin_fill="#ffd5c4" isInit="true"></path>
	<path fill="#ffdd72" d="M1856.9,213.6c-3.6-3.6-7.5-6.5-11.7-8.8c-6.6-15.8-23.7-23.4-40.5-19.7c-22.6,4.9-41.8,16.2-55.6,34.9   c-13.9,18.8-17.1,43.7-17.4,66.5c-0.2,16.2,10.8,27.6,25.1,33c43.8,16.5,96.3-2.5,112.9-47.7   C1877.1,251.6,1871.9,228.6,1856.9,213.6z" origin_fill="#ffb9cd" isInit="true"></path>
	<path fill="#fce0e8" d="M2164.2,157.5c-3.5-2.6-7.4-4.3-11.5-5.4c-5.1-3.3-11.1-5.3-17.5-5.4c-16.3-0.2-30.6-3.7-46,4.9   c-22.8,12.8-24.5,42.6-24.6,65.7c-0.1,17.5,14.7,32.1,32.1,32.1c17.3,0,39.4,2,54.3-8.7c16.4-11.7,20.9-29.1,28-47   C2184.6,179.4,2174.8,165.6,2164.2,157.5z" origin_fill="#ff7aac" isInit="true"></path>
	<path fill="#e9f06a" d="M2437.6,202.2c-2-14.9-12.1-26.8-23.9-35.2c-13.3-9.5-31.8-8.8-46.9-5.5c-15.4,3.3-30.3,11.7-43.5,20.2   c-14.5,9.3-20.8,27.2-14,42.9c-2.2,10.8-2,22.1,1.2,33.9c4.6,16.8,16.9,36.4,33.6,43.8c31.7,14,59.5-1.5,77.7-28.3   C2436.1,252.9,2441,227.1,2437.6,202.2z" origin_fill="#d7df23" isInit="true"></path>
	<path fill="#ffd5c4" d="M3154.1,209.7c-7.7-44.8-61.9-43.3-94.2-31.5c-3.7,1.4-7.2,3.2-10.3,5.4c-16.7,6.5-32.5,16.6-40.2,33.1   c-13.4,28.5-2.8,63.6,19.3,85c28.5,27.6,68.4,17,94.2-7.8C3145.3,272.4,3159.5,240.8,3154.1,209.7z" origin_fill="#ffd5c4" isInit="true"></path>
	<path fill="#e9f06a" d="M3376.8,129c-8.9,0.1-17.1-8.6-41,0c-23.9,8.5-34.2,15.6-34.2,34.2c0,2.6-0.1,5.2-0.2,7.7c0,0,0,0.1,0,0.1   c-14.1,22.4-1.5,52.6,27.6,53.7c1.6,0.1,4,0.2,4.6,0.3c5.3,0.9,10.6,1.7,15.9,2.3c7.7,0.8,15.7,0.4,23.3-1.7   c11.1-0.1,21.2-8.3,27-16.9c6.6-9.9,7.8-25,10.1-36.4C3414.1,150.9,3400.3,128.6,3376.8,129z" origin_fill="#d7df23" isInit="true"></path>
	<path fill="#ffdd72" d="M3597.9,176.9c-23.3-7-50.6,1.1-72.8,8.1c-11.7,3.7-20.5,12.9-23.7,23.9c-7.4,11.8-8.1,27.4-8.2,41   c-0.1,13.7-0.9,27.6,6.7,39.8c8.3,13.3,23.2,21.7,39.1,21c22.5-1,41.8-14.3,58.3-28.6c14.4-12.5,28.3-29.4,33.2-48.2   C3636.9,208.4,3623,184.4,3597.9,176.9z" origin_fill="#ffb9cd" isInit="true"></path>
	<path fill="#fce0e8" d="M3903.8,170.9c0-14.2-26-33.1-26.4-33.2c-3.7-3.1-7.9-5.4-12.4-6.6c-13.9-3.8-26.6,1.4-34.9,11.3   c-4,2.2-21.4,24.1-25.2,33.6c-0.4,0.9-4.4,9.6-5.9,11.9c-9.3,14.7-4.2,34.7,9.2,44.8c6.4,8.2,16.4,13.6,27.1,13.5   c20.1-0.1,41.6-2.6,57.4-16C3908.3,217,3903.8,189.3,3903.8,170.9z" origin_fill="#ff7aac" isInit="true"></path>
	<path fill="#e9f06a" d="M4130,211.1c-16-34.9-58.1-41.4-91.6-32.9c-16.7,4.2-24.1,16.9-24.3,30.1c-14.5,14.6-17.4,35.3-14.2,55   c1.8,11,5.6,23.8,11.2,33.5c9.1,15.6,26,17.5,42.3,18.2c17.6,0.7,37.7-4.1,52-14.6C4134.2,279.3,4145.1,244,4130,211.1z" origin_fill="#d7df23" isInit="true"></path>
	<path fill="#ffdd72" d="M4903.5,177c-0.1-0.8-7-17.6-14.3-22.3c-0.5-0.6-1-1.3-1.6-1.9c-12.6-12.6-31.6-12.6-45.2-2.4   c-0.1,0-0.1,0-0.1,0.1c-1.1,0.7-25.3,14.6-31.1,23.3c-5,7.5-7,30.9-7.2,33.7c-0.1,1.9-0.6,6.3-0.6,6.7c-0.1,0.3-0.2,0.8-0.3,1.6   c-1.5,9.5-1.6,17.8,3.4,26.4c5.9,10.1,17.6,17.4,29.5,16.9c8.8-0.3,38-6.7,38.5-6.8c0.6,0,1.4,0,2.5,0c14.2-0.6,30.2-9.9,33-25.1   C4913.4,209.1,4913.5,191,4903.5,177z" origin_fill="#ffb9cd" isInit="true"></path>
	<path fill="#e9f06a" d="M5184,225.6c-8.9-18.7-24.5-33.8-43.1-36.6c-17.1-6.8-64.5-3.3-80.4,18.8c-24.9,34.6-25.9,79.3,11.8,108.2   c28.3,21.6,70.2,15,95.2-7.4C5190.3,288.1,5197,252.9,5184,225.6z" origin_fill="#d7df23" isInit="true"></path>
	<path fill="#ffd5c4" d="M5371.6,186.6c-0.7-5-3.3-9.5-6.7-13.6c-3.9-6.3-9.7-11.3-16.7-14.1c-19.1-12.4-44.3-14.1-62,1.8   c-9.7,8.7-12,22.1-12,34.4c0,14.4,6.3,25.1,18.4,32.9c2.4,1.6,4.9,2.8,7.3,3.8c14.7,8.7,33.7,6.4,49.3-2.4c5-1.7,9.6-4.3,13.1-8.2   c4.4-4.8,7.4-9.1,9.1-15.5C5373.7,197.4,5372.7,194.8,5371.6,186.6z" origin_fill="#ffd5c4" isInit="true"></path>
	<path fill="#fce0e8" d="M183.2,248.3c-2.5-15.1-18.6-28.6-34-27.6c-4.1,0.3-26.1,6.4-31.6,11.8c-3.9,3.9-13.9,22.3-14.9,28.3   c-0.4,2.7-1.6,7.1-1.1,10.6c1.2,9.2,1.2,10.2,5.2,18.7c3.3,7,11.1,13.1,17.7,16.7c13.4,7.2,30.6,6,41.4-5.4   c7.7-8,12.1-15.8,16-26.1C185.4,266.7,184.7,257.3,183.2,248.3z" origin_fill="#ff7aac" isInit="true"></path>
	<g isInit="true">
		<g isInit="true">
			<path fill="#fce0e8" d="M2698.7,127.7c-6.1-65.4,58.1-94.5,94.7-71.3c36.6,23.2,37.7,69.6,14.4,101.8     c56.5-33.7,104.2,12.4,94,50.7c-8.5,31.9-47.5,66.5-89,35.2c47.6,52.5,11.3,92.2-15.7,100.2c-28.3,8.4-84-16.4-71.7-78     c-38.1,82.5-83,65.9-107.9,40.2c-23.6-24.3-32.2-81,35-101.3c-57-20.8-84.4-67.3-48.3-105.8     C2636.7,64.6,2686.3,92.9,2698.7,127.7z" origin_fill="#ff7aac" isInit="true"></path>
		</g>
		<path fill="#ffd5c4" d="M2756.6,161.1c-6.5-1.5-23.3-0.8-24.8-0.8c-9.4,0-23.2,15.2-24.4,16.4c-9.5,10.2-10.3,23.3-7.3,36.3    c3,13,18.6,24.1,30.6,21.8c3.7-0.7,21.6-3.5,22.1-3.5c12.7-0.3,21-16.1,21-29.1v-18.6C2773.7,173.6,2766.7,163.4,2756.6,161.1z" origin_fill="#ffd5c4" isInit="true"></path>
	</g>
	<g isInit="true">
		<g isInit="true">
			<path fill="#fce0e8" d="M4412.1,114.6c-3.5-92.2,88.9-128,138.4-92.7c49.5,35.3,47.4,100.6,12.3,143.9     c81.9-42.9,145.2,25.5,127.9,78.3c-14.4,44.1-71.7,89.6-127.6,42.5c62.8,77.3,8.7,130.2-29.7,139.3     c-40.4,9.5-116.5-29.5-94.5-114.9c-59.7,112.8-121.5,86-154.5,48c-31.2-35.9-39-116.1,56.9-139.3     c-114.8-8.6-113.1-100.9-59.5-152.1C4330.1,21.4,4397.3,64.9,4412.1,114.6z" origin_fill="#ff7aac" isInit="true"></path>
		</g>
		<path fill="#ffd5c4" d="M4493.1,177.2c-5-2.6-25.2-11.5-32.4-11.4c-19.8,0.2-40.4,4.2-50.4,23.4c-9.8,18.7-9.8,47.4-1,66.3    c19.4,41.3,73.2,23.9,99,0.5C4536,231,4523.1,193.1,4493.1,177.2z" origin_fill="#ffd5c4" isInit="true"></path>
	</g>
	<g isInit="true">
		<g isInit="true">
			<path fill="#fce0e8" d="M1040.7,169c-63.4-75.4-9.1-166.2,55.8-168.9c64.9-2.7,106,53.7,104.8,113.3     c40.9-90,139.1-73.8,159.2-17.9c16.8,46.7-1.7,122.6-79.7,119.5c103.6,24.1,92.8,104.1,66.3,137     c-27.8,34.5-117.5,51.6-155.1-34.8c23.6,134.3-46,152.2-98.8,141.9c-49.8-9.8-109-72.3-43.4-154.9c-88,23.1-161.6-10.9-150-89.2     C910.4,144.2,995.6,136.8,1040.7,169z" origin_fill="#ff7aac" isInit="true"></path>
		</g>
		<path fill="#ffd5c4" d="M1188.4,175.3c-15.4-7.8-31.9-5.5-46.6,1.4c-3.2,0.4-30.5,18.9-36,30.8c-8,17.4-6.3,35.6-0.7,53.5    c2.6,8.2,9.2,16.3,18,18c23.7,4.7,45.7,1.8,65.1-13.2c14.5-11.2,22-29.3,23.2-47.2C1212.7,201.9,1203.8,183.1,1188.4,175.3z" origin_fill="#ffd5c4" isInit="true"></path>
	</g>
</g>
<defs></defs></svg>